The Savage Eye Christmas Special 2012 RTE HDTV 720P x264 AC3 DeViL303

Broadcast 1 jan 2013 RTE TWO HD

Why do the Irish Love Christmas?'

What makes an Irish Christmas? Horrible jumpers, forced togetherness, the office Christmas party, the Toy Show?
The Savage Eye is back for a special Christmas episode to give us some answers to the most important questions we have about Christmas. So join The President for Life, The Ministers, Bull Mick with some more familiar faces to take a long hard look at the Irish festive experience and why we love it so much.

Featuring a cast of well-known comedians David McSavage, John Colleary, Pat McDonnell, Dermot McMorrow, Sonya Kelly, Fred Cooke and Eleanor Tiernan, The Savage Eye continues its efforts to satirically document Irish society from its origins to the present day, blaming the British, the Government and the Catholic Church for almost all of our shortcomings.

File Info:
Complete name                            : The Savage Eye Christmas Special 2012 RTE HDTV 720P x264 AC3 DeViL303.mkv
Format                                   : Matroska
Format version                           : Version 1
File size                                : 457 MiB
Duration                                 : 25mn 35s
Overall bit rate mode                    : Variable
Overall bit rate                         : 2 498 Kbps
Encoded date                             : UTC 2013-02-20 00:34:50
Writing application                      : mkvmerge v2.5.3 ('Boogie') built on Mar  7 2009 15:00:41
Writing library                          : libebml v0.7.7 + libmatroska v0.8.1

Video
ID                                       : 1
Format                                   : AVC
Format/Info                              : Advanced Video Codec
Format profile                           : High@L4.0
Format settings, CABAC                   : Yes
Format settings, ReFrames                : 3 frames
Codec ID                                 : V_MPEG4/ISO/AVC
Duration                                 : 25mn 35s
Bit rate mode                            : Variable
Bit rate                                 : 2 303 Kbps
Maximum bit rate                         : 20.0 Mbps
Width                                    : 1 280 pixels
Height                                   : 720 pixels
Display aspect ratio                     : 16:9
Frame rate mode                          : Constant
Frame rate                               : 25.000 fps
Color space                              : YUV
Chroma subsampling                       : 4:2:0
Bit depth                                : 8 bits
Scan type                                : Progressive
Bits/(Pixel*Frame)                       : 0.100
Stream size                              : 413 MiB (90%)
Writing library                          : x264 core 93 r1542M 5b86182
Default                                  : Yes
Forced                                   : No

Audio
ID                                       : 2
Format                                   : AC-3
Format/Info                              : Audio Coding 3
Mode extension                           : CM (complete main)
Format settings, Endianness              : Big
Codec ID                                 : A_AC3
Duration                                 : 25mn 35s
Bit rate mode                            : Constant
Bit rate                                 : 192 Kbps
Channel(s)                               : 2 channels
Channel positions                        : Front: L R
Sampling rate                            : 48.0 KHz
Bit depth                                : 16 bits
Compression mode                         : Lossy
Stream size                              : 35.1 MiB (8%)
Default                                  : Yes
Forced                                   : No